<svg xmlns="http://www.w3.org/2000/svg" width="384" height="384" viewBox="0 0 384 384">
  <g fill="none" stroke="#FFF" stroke-width="1.6" transform="translate(96 96)">
    <rect width="32" height="19.2" fill="#343E73"/>
    <rect width="32" height="19.2" y="19.2" fill="#343E73"/>
    <rect width="32" height="19.2" x="64" y="19.2" fill="#9D1414"/>
    <rect width="32" height="19.2" x="128" y="19.2" fill="#E75826"/>
    <rect width="32" height="19.2" x="32" y="19.2" fill="#7F1818"/>
    <rect width="32" height="19.2" x="96" y="19.2" fill="#E75826"/>
    <rect width="32" height="19.2" x="160" y="19.2" fill="#FF9C4D"/>
    <rect width="32" height="19.2" y="96" fill="#343E73"/>
    <rect width="32" height="19.2" x="64" y="96" fill="#9D1414"/>
    <rect width="32" height="19.2" x="128" y="96" fill="#E75826"/>
    <rect width="32" height="19.2" x="32" y="96" fill="#7F1818"/>
    <rect width="32" height="19.2" x="96" y="96" fill="#E75826"/>
    <rect width="32" height="19.2" x="160" y="96" fill="#FF9C4D"/>
    <rect width="32" height="19.2" y="57.6" fill="#343E73"/>
    <rect width="32" height="19.2" x="64" y="57.6" fill="#7F1818"/>
    <rect width="32" height="19.2" x="128" y="57.6" fill="#FF9C4D"/>
    <rect width="32" height="19.2" x="32" y="57.6" fill="#343E73"/>
    <rect width="32" height="19.2" x="96" y="57.6" fill="#FF9C4D"/>
    <rect width="32" height="19.2" x="160" y="57.6" fill="#FF9C4D"/>
    <rect width="32" height="19.2" y="134.4" fill="#C02323"/>
    <rect width="32" height="19.2" x="64" y="134.4" fill="#9D1414"/>
    <rect width="32" height="19.2" x="128" y="134.4" fill="#FF9C4D"/>
    <rect width="32" height="19.2" x="32" y="134.4" fill="#E75826"/>
    <rect width="32" height="19.2" x="96" y="134.4" fill="#E75826"/>
    <rect width="32" height="19.2" x="160" y="134.4" fill="#FFDA8A"/>
    <rect width="32" height="19.2" y="38.4" fill="#343E73"/>
    <rect width="32" height="19.2" x="64" y="38.4" fill="#343E73"/>
    <rect width="32" height="19.2" x="128" y="38.4" fill="#E75826"/>
    <rect width="32" height="19.2" x="32" y="38.4" fill="#7F1818"/>
    <rect width="32" height="19.2" x="96" y="38.4" fill="#C02323"/>
    <rect width="32" height="19.2" x="160" y="38.4" fill="#FF9C4D"/>
    <rect width="32" height="19.2" y="115.2" fill="#343E73"/>
    <rect width="32" height="19.2" x="64" y="115.2" fill="#C02323"/>
    <rect width="32" height="19.2" x="128" y="115.2" fill="#FF9C4D"/>
    <rect width="32" height="19.2" x="32" y="115.2" fill="#C02323"/>
    <rect width="32" height="19.2" x="96" y="115.2" fill="#C02323"/>
    <rect width="32" height="19.2" x="160" y="115.2" fill="#FF9C4D"/>
    <rect width="32" height="19.2" y="76.8" fill="#7F1818"/>
    <rect width="32" height="19.2" x="64" y="76.8" fill="#9D1414"/>
    <rect width="32" height="19.2" x="128" y="76.8" fill="#FF9C4D"/>
    <rect width="32" height="19.2" x="32" y="76.8" fill="#7F1818"/>
    <rect width="32" height="19.2" x="96" y="76.8" fill="#C02323"/>
    <rect width="32" height="19.2" x="160" y="76.8" fill="#FFDA8A"/>
    <rect width="32" height="19.2" y="153.6" fill="#7F1818"/>
    <rect width="32" height="19.2" x="64" y="153.6" fill="#FF9C4D"/>
    <rect width="32" height="19.2" x="128" y="153.6" fill="#FF9C4D"/>
    <rect width="32" height="19.2" x="32" y="153.6" fill="#C02323"/>
    <rect width="32" height="19.2" x="96" y="153.6" fill="#E75826"/>
    <rect width="32" height="19.2" x="160" y="153.6" fill="#FFDA8A"/>
    <rect width="32" height="19.2" y="172.8" fill="#9D1414"/>
    <rect width="32" height="19.2" x="64" y="172.8" fill="#E75826"/>
    <rect width="32" height="19.2" x="128" y="172.8" fill="#FFDA8A"/>
    <rect width="32" height="19.2" x="32" y="172.8" fill="#9D1414"/>
    <rect width="32" height="19.2" x="96" y="172.8" fill="#FF9C4D"/>
    <rect width="32" height="19.2" x="160" y="172.8" fill="#FFDA8A"/>
    <rect width="32" height="19.2" x="64" fill="#9D1414"/>
    <rect width="32" height="19.2" x="128" fill="#FF9C4D"/>
    <rect width="32" height="19.2" x="32" fill="#343E73"/>
    <rect width="32" height="19.2" x="96" fill="#E75826"/>
    <rect width="32" height="19.2" x="160" fill="#E75826"/>
  </g>
</svg>
