<svg xmlns="http://www.w3.org/2000/svg" width="384" height="384" viewBox="0 0 384 384">
  <g fill="none" fill-rule="evenodd" transform="translate(44 95)">
    <line x1="40.8" x2="280.8" y1="134.8" y2="134.8" stroke="#9B9B9B" stroke-dasharray="4.8" stroke-width="1.6"/>
    <line x1="40.8" x2="280.8" y1="102.8" y2="102.8" stroke="#9B9B9B" stroke-dasharray="4.8" stroke-width="1.6"/>
    <line x1="40.8" x2="280.8" y1="70.8" y2="70.8" stroke="#9B9B9B" stroke-dasharray="4.8" stroke-width="1.6"/>
    <line x1="40.8" x2="280.8" y1="38.8" y2="38.8" stroke="#9B9B9B" stroke-dasharray="4.8" stroke-width="1.6"/>
    <line x1="40.8" x2="280.8" y1="6.8" y2="6.8" stroke="#9B9B9B" stroke-dasharray="4.8" stroke-width="1.6"/>
    <text fill="#4A4A4A" font-family="Helvetica" font-size="14">
      <tspan x="22.814" y="174">0</tspan>
    </text>
    <text fill="#4A4A4A" font-family="Helvetica" font-size="14">
      <tspan x="7.642" y="142">200</tspan>
    </text>
    <text fill="#4A4A4A" font-family="Helvetica" font-size="14">
      <tspan x="7.642" y="78">600</tspan>
    </text>
    <text fill="#4A4A4A" font-family="Helvetica" font-size="14">
      <tspan x="7.642" y="14">100</tspan> <tspan x="23.214" y="31">0</tspan>
    </text>
    <text fill="#4A4A4A" font-family="Helvetica" font-size="14">
      <tspan x="8.242" y="110">400</tspan>
    </text>
    <text fill="#4A4A4A" font-family="Helvetica" font-size="14">
      <tspan x="8.242" y="46">800</tspan>
    </text>
    <text fill="#4A4A4A" font-family="PingFangSC-Regular, PingFang SC" font-size="14">
      <tspan x="75.4" y="193.2">二月</tspan>
    </text>
    <text fill="#4A4A4A" font-family="PingFangSC-Regular, PingFang SC" font-size="14">
      <tspan x="28.6" y="193.2">一月</tspan>
    </text>
    <text fill="#4A4A4A" font-family="PingFangSC-Regular, PingFang SC" font-size="14">
      <tspan x="123.8" y="193.2">三月</tspan>
    </text>
    <text fill="#4A4A4A" font-family="PingFangSC-Regular, PingFang SC" font-size="14">
      <tspan x="172.2" y="193.2">四月</tspan>
    </text>
    <text fill="#4A4A4A" font-family="PingFangSC-Regular, PingFang SC" font-size="14">
      <tspan x="219" y="193.2">五月</tspan>
    </text>
    <text fill="#4A4A4A" font-family="PingFangSC-Regular, PingFang SC" font-size="14">
      <tspan x="267.4" y="193.2">六月</tspan>
    </text>
    <line x1="42.2" x2="42.2" y1="167.6" y2="170.8" stroke="#4A4A4A" stroke-linecap="square" stroke-width="1.6"/>
    <line x1="89.88" x2="89.88" y1="167.6" y2="170.8" stroke="#4A4A4A" stroke-linecap="square" stroke-width="1.6"/>
    <line x1="137.56" x2="137.56" y1="167.6" y2="170.8" stroke="#4A4A4A" stroke-linecap="square" stroke-width="1.6"/>
    <line x1="185.24" x2="185.24" y1="167.6" y2="170.8" stroke="#4A4A4A" stroke-linecap="square" stroke-width="1.6"/>
    <line x1="232.92" x2="232.92" y1="167.6" y2="170.8" stroke="#4A4A4A" stroke-linecap="square" stroke-width="1.6"/>
    <line x1="280.6" x2="280.6" y1="167.6" y2="170.8" stroke="#4A4A4A" stroke-linecap="square" stroke-width="1.6"/>
    <line x1="41.4" x2="281.4" y1="166.8" y2="166.8" stroke="#4A4A4A" stroke-width="1.6"/>
    <polyline stroke="#FF9C4D" stroke-width="3.2" points="43.302 119.912 91.25 77.647 137.594 102.053 184.857 25.024 232.461 63.565 280.068 57.45"/>
    <circle cx="43" cy="119.729" r="5.6" fill="#FF9C4D" fill-rule="nonzero" stroke="#FFF" stroke-width="1.6"/>
    <circle cx="232.44" cy="63.6" r="5.6" fill="#FF9C4D" fill-rule="nonzero" stroke="#FFF" stroke-width="1.6"/>
    <circle cx="279.8" cy="57.329" r="5.6" fill="#FF9C4D" fill-rule="nonzero" stroke="#FFF" stroke-width="1.6"/>
    <circle cx="91" cy="78" r="5.6" fill="#FF9C4D" fill-rule="nonzero" stroke="#FFF" stroke-width="1.6"/>
    <circle cx="137.4" cy="102" r="5.6" fill="#FF9C4D" fill-rule="nonzero" stroke="#FFF" stroke-width="1.6"/>
    <circle cx="185.08" cy="25.2" r="5.6" fill="#FF9C4D" fill-rule="nonzero" stroke="#FFF" stroke-width="1.6"/>
  </g>
</svg>
