<svg xmlns="http://www.w3.org/2000/svg" xmlns:xlink="http://www.w3.org/1999/xlink" width="200" height="200" viewBox="0 0 200 200">
  <defs>
    <polygon id="pie-a" points="0 0 79.5 0 79.5 136.052 0 136.052"/>
    <polygon id="pie-c" points="0 .425 79.5 .425 79.5 99.328 0 99.328"/>
  </defs>
  <g fill="none" fill-rule="evenodd" transform="translate(1 7)">
    <g transform="translate(19 14)">
      <path fill="#FF9C4D" d="M79.5,0 C57.7834218,0 38.1187682,8.83926429 23.85,23.1367714 L79.5,79.5 L79.5,0 Z"/>
      <g transform="translate(79.5)">
        <mask id="pie-b" fill="#fff">
          <use xlink:href="#pie-a"/>
        </mask>
        <path fill="#343E73" d="M56.0593114,136.051814 C70.5351257,121.63323 79.5004543,101.671487 79.5004543,79.6103029 C79.5004543,35.6426071 43.9071686,-0.000113729167 0.000454285714,-0.000113729167 L0.000454285714,79.6103029 L56.0593114,136.051814 Z" mask="url(#pie-b)"/>
      </g>
      <g transform="translate(0 22.525)">
        <mask id="pie-d" fill="#fff">
          <use xlink:href="#pie-c"/>
        </mask>
        <path fill="#FFDA8A" d="M23.4406886,0.425028017 C8.96487429,14.9063642 -0.000454285714,34.9549849 -0.000454285714,57.1121832 C-0.000454285714,72.6135409 4.39930286,87.0743168 11.9904171,99.3282823 L79.4995457,57.1121832 L23.4406886,0.425028017 Z" mask="url(#pie-d)"/>
      </g>
      <path fill="#22A6A1" d="M79.2467445,79.5 L11.925,121.474864 C25.9212,143.999486 50.831899,159 79.2467445,159 C101.062152,159 120.816297,150.160736 135.15,135.863229 L79.2467445,79.5 Z"/>
    </g>
    <text fill="#4A4A4A" font-family="Helvetica" font-size="12">
      <tspan x="183.998" y="57">A</tspan>
    </text>
    <text fill="#4A4A4A" font-family="Helvetica" font-size="12">
      <tspan x="59.667" y="11">D</tspan>
    </text>
    <text fill="#4A4A4A" font-family="Helvetica" font-size="12">
      <tspan x="81.998" y="190">B</tspan>
    </text>
    <text fill="#4A4A4A" font-family="Helvetica" font-size="12">
      <tspan x="1.667" y="82">C</tspan>
    </text>
  </g>
</svg>
