<svg xmlns="http://www.w3.org/2000/svg" width="384" height="384" viewBox="0 0 384 384">
  <g fill="none" fill-rule="evenodd" transform="translate(82 66)">
    <g transform="translate(20 26)">
      <path stroke="#22A6A1" stroke-dasharray="3.2" stroke-width="1.6" d="M22.9517379,61.2457115 L22.9517379,138.490816 L89.7017588,177.114324 L156.45178,138.490816 L156.45178,61.2457115 L89.7017588,22.6222038 L22.9517379,61.2457115 Z"/>
      <path stroke="#22A6A1" stroke-dasharray="3.2" stroke-width="1.6" d="M3.88030341,50.2097956 L3.88030341,149.527114 L89.7017588,199.184818 L175.523214,149.527114 L175.523214,50.2097956 L89.7017588,0.552092056 L3.88030341,50.2097956 Z"/>
      <path stroke="#22A6A1" stroke-dasharray="3.2" stroke-width="1.6" d="M42.0231725,72.2807674 L42.0231725,127.455569 L89.7017588,155.044881 L137.380345,127.455569 L137.380345,72.2807674 L89.7017588,44.692411 L42.0231725,72.2807674 Z"/>
      <path stroke="#22A6A1" stroke-dasharray="3.2" stroke-width="1.6" d="M61.094607,83.3158232 L61.094607,116.421277 L89.7017588,132.973527 L118.308911,116.421277 L118.308911,83.3158232 L89.7017588,66.763574 L61.094607,83.3158232 Z"/>
      <path stroke="#22A6A1" stroke-dasharray="3.2" stroke-width="1.6" d="M80.1660415,94.3508791 L80.1660415,105.386031 L89.7017588,110.903128 L99.237476,105.386031 L99.237476,94.3508791 L89.7017588,88.8337812 L80.1660415,94.3508791 Z"/>
      <g transform="translate(0 .001)">
        <path stroke="#22A6A1" stroke-dasharray="3.2" stroke-width="1.6" d="M89.7017588.554003401L89.7017588 22.6204835 89.7017588 44.6869637 89.7017588 66.7630005 89.7017588 88.8294807 89.7017588 99.8674991 89.7017588 110.905518 89.7017588 132.971998 89.7017588 155.048035 89.7017588 177.114515 89.7017588 199.180995M175.523214 50.2106557L175.523214 50.2202124 156.45178 61.2486741 137.380345 72.2771358 137.380345 72.2866926 118.308911 83.3151543 99.237476 94.3531727 89.7017588 99.8674036 80.1660415 105.380679 61.094607 116.419653 42.0231725 127.448115 42.0231725 127.457671 22.9517379 138.486133 3.88030341 149.514595 3.88030341 149.524151"/>
        <path stroke="#22A6A1" stroke-dasharray="3.2" stroke-width="1.6" d="M3.88030341,50.2106557 L3.88030341,50.2202124 L22.9517379,61.2486741 L42.0231725,72.2771358 L42.0231725,72.2866926 L61.094607,83.3151543 L80.1660415,94.3531727 L89.7017588,99.8674036 L99.237476,105.380679 L118.308911,116.419653 L137.380345,127.448115 L137.380345,127.457671 L156.45178,138.486133 L175.523214,149.514595 L175.523214,149.524151"/>
        <polygon fill="#FFDA8A" fill-opacity=".503" stroke="#FF9C4D" stroke-width="1.6" points="90.179 12.901 156.929 61.64 122.6 118.981 90.047 172.603 32.964 132.36 3.404 50.172"/>
        <path fill="#FF9C4D" d="M94.1395349 13.6734694C94.1395349 15.9394367 92.3074977 17.7755102 90.0465116 17.7755102 87.7863442 17.7755102 85.9534884 15.9394367 85.9534884 13.6734694 85.9534884 11.407502 87.7863442 9.57142857 90.0465116 9.57142857 92.3074977 9.57142857 94.1395349 11.407502 94.1395349 13.6734694M160.346753 60.9641777C160.346753 63.2301451 158.514716 65.0662186 156.25373 65.0662186 153.992744 65.0662186 152.160707 63.2301451 152.160707 60.9641777 152.160707 58.6982104 153.992744 56.8621369 156.25373 56.8621369 158.514716 56.8621369 160.346753 58.6982104 160.346753 60.9641777M126.018171 118.304533C126.018171 120.570501 124.186134 122.406574 121.925148 122.406574 119.664162 122.406574 117.832125 120.570501 117.832125 118.304533 117.832125 116.038566 119.664162 114.202492 121.925148 114.202492 124.186134 114.202492 126.018171 116.038566 126.018171 118.304533M94.1395349 172.285714C94.1395349 174.551682 92.3074977 176.387755 90.0465116 176.387755 87.7863442 176.387755 85.9534884 174.551682 85.9534884 172.285714 85.9534884 170.019747 87.7863442 168.183673 90.0465116 168.183673 92.3074977 168.183673 94.1395349 170.019747 94.1395349 172.285714M36.8372093 131.265306C36.8372093 133.531273 35.0043535 135.367347 32.744186 135.367347 30.4840186 135.367347 28.6511628 133.531273 28.6511628 131.265306 28.6511628 128.999339 30.4840186 127.163265 32.744186 127.163265 35.0043535 127.163265 36.8372093 128.999339 36.8372093 131.265306M8.18604651 50.5918367C8.18604651 52.8578041 6.3531907 54.6938776 4.09302326 54.6938776 1.83285581 54.6938776 0 52.8578041 0 50.5918367 0 48.3258694 1.83285581 46.4897959 4.09302326 46.4897959 6.3531907 46.4897959 8.18604651 48.3258694 8.18604651 50.5918367"/>
      </g>
    </g>
    <text fill="#FF0000" font-family="Helvetica" font-size="14">
      <tspan x="105" y="14">A</tspan>
    </text>
    <text fill="#4A4A4A" font-family="Helvetica" font-size="14">
      <tspan x="105" y="253">D</tspan>
    </text>
    <text fill="#4A4A4A" font-family="Helvetica" font-size="14">
      <tspan x="210" y="86">B</tspan>
    </text>
    <text fill="#4A4A4A" font-family="Helvetica" font-size="14">
      <tspan x="0" y="84">F</tspan>
    </text>
    <text fill="#4A4A4A" font-family="Helvetica" font-size="14">
      <tspan x="210" y="187">C</tspan>
    </text>
    <text fill="#4A4A4A" font-family="Helvetica" font-size="14">
      <tspan x="0" y="185">E</tspan>
    </text>
  </g>
</svg>
