<svg xmlns="http://www.w3.org/2000/svg" width="384" height="384" viewBox="0 0 384 384">
  <g fill="none" transform="translate(82 110)">
    <rect width="10" height="70" y="4" fill="#FF9C4D"/>
    <rect width="10" height="80" y="80" fill="#22A6A1"/>
    <rect width="10" height="90" x="210" y="1" fill="#A6D169"/>
    <rect width="10" height="30" x="210" y="97" fill="#FFDA8A"/>
    <rect width="10" height="30" x="210" y="133" fill="#E0B8ED"/>
    <path fill="#E0B8ED" d="M10,140.002961 C56.4251766,139.938121 89.75851,140.938121 110,143.002961 C130.24149,145.067802 163.574823,145.067802 210,143.002961 L210,163.002961 C165.594404,163.669628 132.261071,163.002961 110,161.002961 C87.7389294,159.002961 54.405596,158.669628 10,160.002961 L10,140.002961 Z" opacity=".249"/>
    <path fill="#FFDA8A" d="M10,120 C56.8389101,120.260419 90.1722435,118.158857 110,113.695314 C129.827757,109.231771 163.16109,107 210,107 L210,127 C164.034639,127 130.701305,129.077651 110,133.232953 C89.2986947,137.388255 55.9653614,139.643938 10,140 L10,120 Z" opacity=".249"/>
    <path fill="#A6D169" d="M10,80 C56.5413826,78.2295778 89.874716,73.43744 110,65.6235866 C130.125284,57.8097331 163.458617,52.9352043 210,51 L210,91 C163.99056,92.988911 130.657227,97.9148367 110,105.777777 C89.3427729,113.640718 56.0094395,118.381459 10,120 L10,80 Z" opacity=".249"/>
    <path fill="#E0B8ED" d="M10,64 C52.2668041,87.2396744 85.6001374,98.8595116 110,98.8595116 C134.399863,98.8595116 167.733196,110.239674 210,133 L210,143 C168.00067,119.785021 134.667337,108.177532 110,108.177532 C85.3326632,108.177532 51.9993299,96.7850212 10,74 L10,64 Z" opacity=".249"/>
    <path fill="#FFDA8A" d="M10,54 C56.7136881,68.8045666 90.0470215,76.20685 110,76.20685 C129.952979,76.20685 163.286312,83.1379 210,97 L210,107 C164.268052,92.8936198 130.934719,85.8404296 110,85.8404296 C89.0652809,85.8404296 55.7319476,78.5602864 10,64 L10,54 Z" opacity=".249"/>
    <path fill="#A6D169" d="M10,3.86037435 C54.0091879,7.64893179 87.3425212,7.64893179 110,3.86037435 C132.657479,0.0718169059 165.990812,-0.928183094 210,0.86037435 L210,50.8603743 C165.612677,48.088259 132.279343,48.088259 110,50.8603743 C87.7206568,53.6324897 54.3873235,54.6324897 10,53.8603743 L10,3.86037435 Z" opacity=".249"/>
  </g>
</svg>
