<svg xmlns="http://www.w3.org/2000/svg" width="384" height="384" viewBox="0 0 384 384">
  <g fill="none" fill-rule="evenodd" transform="translate(73 77)">
    <path fill="#E8F6F5" d="M158.208158,78.745808 C151.77809,87.6974204 146.670514,97.6647506 143.18338,108.364532 L225.521831,135.232463 C226.22777,133.06462 227.275705,131.056771 228.57757,129.241204 L158.208158,78.745808 Z" transform="rotate(144 185.88 106.99)"/>
    <path stroke="#FFF" stroke-width="1.6" d="M158.208158,78.745808 C151.77809,87.6974204 146.670514,97.6647506 143.18338,108.364532 L225.521831,135.232463 C226.22777,133.06462 227.275705,131.056771 228.57757,129.241204 L158.208158,78.745808 Z" transform="rotate(144 185.88 106.99)"/>
    <path fill="#E8F6F5" d="M183.876986,197.568842 L170.212574,112.050165 C164.618913,112.937997 159.16617,114.242673 153.891038,115.950985 L180.571581,198.362801 C181.641579,198.016442 182.74387,197.749343 183.876986,197.568842" transform="rotate(144 168.884 155.206)"/>
    <path stroke="#FFF" stroke-width="1.6" d="M183.876986,197.568842 L170.212574,112.050165 C164.618913,112.937997 159.16617,114.242673 153.891038,115.950985 L180.571581,198.362801 C181.641579,198.016442 182.74387,197.749343 183.876986,197.568842 Z" transform="rotate(144 168.884 155.206)"/>
    <path fill="#90D2D0" d="M135.739987,98.4033858 L199.768918,106.860855 C199.947948,105.503194 200.248805,104.185165 200.661215,102.917043 L139.253407,82.8791201 C137.627252,87.8708835 136.439967,93.0593373 135.739987,98.4033858" transform="rotate(144 168.2 94.87)"/>
    <path stroke="#FFF" stroke-width="1.6" d="M135.739987,98.4033858 L199.768918,106.860855 C199.947948,105.503194 200.248805,104.185165 200.661215,102.917043 L139.253407,82.8791201 C137.627252,87.8708835 136.439967,93.0593373 135.739987,98.4033858 Z" transform="rotate(144 168.2 94.87)"/>
    <path fill="#90D2D0" d="M160.469179,186.15851 L160.467387,121.577628 C155.81748,121.577628 151.260053,121.964858 146.808314,122.670721 L156.99937,186.450495 C158.131019,186.271462 159.284686,186.158477 160.469179,186.15851" transform="rotate(144 153.639 154.014)"/>
    <path stroke="#FFF" stroke-width="1.6" d="M160.469179,186.15851 L160.467387,121.577628 C155.81748,121.577628 151.260053,121.964858 146.808314,122.670721 L156.99937,186.450495 C158.131019,186.271462 159.284686,186.158477 160.469179,186.15851 Z" transform="rotate(144 153.639 154.014)"/>
    <path fill="#90D2D0" d="M199.983725,139.937401 L153.875293,94.7280366 C150.785717,97.8821398 147.92512,101.260815 145.341937,104.856724 L197.827637,142.519109 C198.483707,141.60472 199.198489,140.738769 199.983725,139.937401" transform="rotate(144 172.663 118.624)"/>
    <path stroke="#FFF" stroke-width="1.6" d="M199.983725,139.937401 L153.875293,94.7280366 C150.785717,97.8821398 147.92512,101.260815 145.341937,104.856724 L197.827637,142.519109 C198.483707,141.60472 199.198489,140.738769 199.983725,139.937401 Z" transform="rotate(144 172.663 118.624)"/>
    <path fill="#BCE4E3" d="M180.775921,172.188516 L160.877074,110.724578 C156.664601,112.087998 152.593043,113.761117 148.691755,115.726323 L177.67455,173.447758 C178.666752,172.948751 179.705924,172.534875 180.775921,172.188516" transform="rotate(144 164.734 142.086)"/>
    <path stroke="#FFF" stroke-width="1.6" d="M180.775921,172.188516 L160.877074,110.724578 C156.664601,112.087998 152.593043,113.761117 148.691755,115.726323 L177.67455,173.447758 C178.666752,172.948751 179.705924,172.534875 180.775921,172.188516 Z" transform="rotate(144 164.734 142.086)"/>
    <path fill="#BCE4E3" d="M171.353981,179.898911 L161.162926,116.119136 C156.703849,116.826467 152.356331,117.866979 148.14973,119.228932 L168.048577,180.69287 C169.118574,180.346512 170.220865,180.079412 171.353981,179.898911" transform="rotate(144 159.752 148.406)"/>
    <path stroke="#FFF" stroke-width="1.6" d="M171.353981,179.898911 L161.162926,116.119136 C156.703849,116.826467 152.356331,117.866979 148.14973,119.228932 L168.048577,180.69287 C169.118574,180.346512 170.220865,180.079412 171.353981,179.898911 Z" transform="rotate(144 159.752 148.406)"/>
    <path fill="#90D2D0" d="M167.251861,159.883805 L167.25068,117.319133 C156.826551,117.319133 146.985196,119.796128 138.271145,124.182983 L157.375277,162.230459 C160.344542,160.733439 163.696913,159.883706 167.251861,159.883805" transform="rotate(144 152.762 139.775)"/>
    <path stroke="#FFF" stroke-width="1.6" d="M167.251861,159.883805 L167.25068,117.319133 C156.826551,117.319133 146.985196,119.796128 138.271145,124.182983 L157.375277,162.230459 C160.344542,160.733439 163.696913,159.883706 167.251861,159.883805 Z" transform="rotate(144 152.762 139.775)"/>
    <path fill="#BCE4E3" d="M153.389434,86.1220307 C148.262698,93.2595436 144.191314,101.205815 141.41012,109.737752 L202.819395,129.775675 C203.525334,127.607832 204.573269,125.599983 205.875134,123.784415 L153.389434,86.1220307 Z" transform="rotate(144 173.643 107.949)"/>
    <path stroke="#FFF" stroke-width="1.6" d="M153.389434,86.1220307 C148.262698,93.2595436 144.191314,101.205815 141.41012,109.737752 L202.819395,129.775675 C203.525334,127.607832 204.573269,125.599983 205.875134,123.784415 L153.389434,86.1220307 Z" transform="rotate(144 173.643 107.949)"/>
    <path fill="#64C0BD" d="M171.940659,89.589673 C153.234143,99.0062206 139.735534,117.24701 136.907734,138.850704 L179.115191,144.426379 C180.079314,137.062718 184.674741,130.846936 191.04479,127.635681 L171.940659,89.589673 Z" transform="rotate(144 163.976 117.008)"/>
    <path stroke="#FFF" stroke-width="1.6" d="M171.940659,89.589673 C153.234143,99.0062206 139.735534,117.24701 136.907734,138.850704 L179.115191,144.426379 C180.079314,137.062718 184.674741,130.846936 191.04479,127.635681 L171.940659,89.589673 Z" transform="rotate(144 163.976 117.008)"/>
    <path fill="#C2C5D5" d="M206.962134,60.0211326 L120.363481,60.0187294 C120.363481,66.0042029 120.85845,71.8737381 121.790645,77.5965108 L207.285143,63.578961 C207.095768,62.4179676 206.962168,61.2364273 206.962134,60.0211326" transform="rotate(144 163.824 68.808)"/>
    <path stroke="#FFF" stroke-width="1.6" d="M206.962134,60.0211326 L120.363481,60.0187294 C120.363481,66.0042029 120.85845,71.8737381 121.790645,77.5965108 L207.285143,63.578961 C207.095768,62.4179676 206.962168,61.2364273 206.962134,60.0211326 Z" transform="rotate(144 163.824 68.808)"/>
    <path fill="#EAEBF1" d="M165.295854,15.6504017 L95.5310559,67.0093473 C98.8057824,71.4479061 102.406347,75.6296181 106.304863,79.5163211 L167.475568,18.1808586 C166.685884,17.3926564 165.959313,16.5486815 165.295854,15.6504017" transform="rotate(144 131.503 47.583)"/>
    <path stroke="#FFF" stroke-width="1.6" d="M165.295854,15.6504017 L95.5310559,67.0093473 C98.8057824,71.4479061 102.406347,75.6296181 106.304863,79.5163211 L167.475568,18.1808586 C166.685884,17.3926564 165.959313,16.5486815 165.295854,15.6504017 Z" transform="rotate(144 131.503 47.583)"/>
    <path fill="#C2C5D5" d="M178.147069,23.3743491 L101.172243,63.0923907 C103.814378,68.2016924 106.861611,73.0673593 110.252296,77.6629703 L180.017094,26.3040247 C179.327214,25.3734537 178.684303,24.4091259 178.147069,23.3743491" transform="rotate(144 140.595 50.519)"/>
    <path stroke="#FFF" stroke-width="1.6" d="M178.147069,23.3743491 L101.172243,63.0923907 C103.814378,68.2016924 106.861611,73.0673593 110.252296,77.6629703 L180.017094,26.3040247 C179.327214,25.3734537 178.684303,24.4091259 178.147069,23.3743491 Z" transform="rotate(144 140.595 50.519)"/>
    <path fill="#EAEBF1" d="M199.572393,46.6425427 L114.077895,60.6600924 C114.964581,66.1010563 116.254901,71.4055309 117.918032,76.5426926 L200.354805,49.8554632 C200.015721,48.814821 199.752959,47.7448259 199.572393,46.6425427" transform="rotate(144 157.216 61.593)"/>
    <path stroke="#FFF" stroke-width="1.6" d="M199.572393,46.6425427 L114.077895,60.6600924 C114.964581,66.1010563 116.254901,71.4055309 117.918032,76.5426926 L200.354805,49.8554632 C200.015721,48.814821 199.752959,47.7448259 199.572393,46.6425427 Z" transform="rotate(144 157.216 61.593)"/>
    <path fill="#C2C5D5" d="M183.666707,58.4933463 L119.084661,58.4915541 C119.084661,67.802943 120.577894,76.7591785 123.29938,85.1650429 L184.772129,65.2640953 C184.076345,63.1270359 183.666773,60.8622904 183.666707,58.4933463" transform="rotate(144 151.928 71.828)"/>
    <path stroke="#FFF" stroke-width="1.6" d="M183.666707,58.4933463 L119.084661,58.4915541 C119.084661,67.802943 120.577894,76.7591785 123.29938,85.1650429 L184.772129,65.2640953 C184.076345,63.1270359 183.666773,60.8622904 183.666707,58.4933463 Z" transform="rotate(144 151.928 71.828)"/>
    <path fill="#C2C5D5" d="M142.758592,30.804485 L97.1502588,76.53529 C100.216523,79.591225 103.485334,82.4446165 106.978707,85.0176745 L145.240658,32.9724166 C144.352636,32.3177767 143.538001,31.5794772 142.758592,30.804485" transform="rotate(144 121.195 57.911)"/>
    <path stroke="#FFF" stroke-width="1.6" d="M142.758592,30.804485 L97.1502588,76.53529 C100.216523,79.591225 103.485334,82.4446165 106.978707,85.0176745 L145.240658,32.9724166 C144.352636,32.3177767 143.538001,31.5794772 142.758592,30.804485 Z" transform="rotate(144 121.195 57.911)"/>
    <path fill="#989DB8" d="M163.910097,30.6580117 L102.437347,50.5589593 C106.717742,63.7746749 114.092166,75.5873099 123.703414,85.1704988 L169.313215,39.4382261 C166.867837,37.0046332 165.000746,34.0118446 163.910097,30.6580117" transform="rotate(144 135.875 57.914)"/>
    <path stroke="#FFF" stroke-width="1.6" d="M163.910097,30.6580117 L102.437347,50.5589593 C106.717742,63.7746749 114.092166,75.5873099 123.703414,85.1704988 L169.313215,39.4382261 C166.867837,37.0046332 165.000746,34.0118446 163.910097,30.6580117 Z" transform="rotate(144 135.875 57.914)"/>
    <path fill="#70779D" d="M149.168429,44.3468136 L106.602989,44.3456324 C106.603582,65.694017 116.969525,84.616503 132.936295,96.373602 L158.159035,62.0657086 C152.716418,58.0586074 149.168631,51.6253725 149.168429,44.3468136" transform="rotate(144 132.381 70.36)"/>
    <path stroke="#FFF" stroke-width="1.6" d="M149.168429,44.3468136 L106.602989,44.3456324 C106.603582,65.694017 116.969525,84.616503 132.936295,96.373602 L158.159035,62.0657086 C152.716418,58.0586074 149.168631,51.6253725 149.168429,44.3468136 Z" transform="rotate(144 132.381 70.36)"/>
    <path fill="#FAE8EE" d="M89.4813655,13.2244352 L76.3926669,98.8304338 C81.748596,99.6437145 87.2278077,100.084346 92.8112192,100.084346 L92.808816,13.4872543 C91.6756946,13.4872228 90.566055,13.3917885 89.4813655,13.2244352" transform="rotate(144 84.602 56.654)"/>
    <path stroke="#FFF" stroke-width="1.6" d="M89.4813655,13.2244352 L76.3926669,98.8304338 C81.748596,99.6437145 87.2278077,100.084346 92.8112192,100.084346 L92.808816,13.4872543 C91.6756946,13.4872228 90.566055,13.3917885 89.4813655,13.2244352 Z" transform="rotate(144 84.602 56.654)"/>
    <path fill="#FAE8EE" d="M39.4246539,38.9188085 C38.3649363,39.4618456 37.2670547,39.938833 36.1163303,40.3057379 L62.4020457,122.837899 C68.0778767,121.028324 73.5364641,118.746128 78.7660678,116.072038 L39.4246539,38.9188085 Z" transform="rotate(144 57.441 80.878)"/>
    <path stroke="#FFF" stroke-width="1.6" d="M39.4246539,38.9188085 C38.3649363,39.4618456 37.2670547,39.938833 36.1163303,40.3057379 L62.4020457,122.837899 C68.0778767,121.028324 73.5364641,118.746128 78.7660678,116.072038 L39.4246539,38.9188085 Z" transform="rotate(144 57.441 80.878)"/>
    <path fill="#F1BCCD" d="M62.1022333,23.5173253 L62.1046364,110.114417 C68.0814113,110.114417 73.9407503,109.614243 79.6547679,108.685318 L65.6557048,23.2018582 C64.4961688,23.3911655 63.3146144,23.5173589 62.1022333,23.5173253" transform="rotate(144 70.879 66.658)"/>
    <path stroke="#FFF" stroke-width="1.6" d="M62.1022333,23.5173253 L62.1046364,110.114417 C68.0814113,110.114417 73.9407503,109.614243 79.6547679,108.685318 L65.6557048,23.2018582 C64.4961688,23.3911655 63.3146144,23.5173589 62.1022333,23.5173253 Z" transform="rotate(144 70.879 66.658)"/>
    <path fill="#F1BCCD" d="M54.6531538,54.9773541 C53.5934361,55.5159879 52.4838116,55.9680233 51.3345549,56.3334605 L70.9413176,117.889859 C75.4649564,116.450124 79.8271301,114.650787 83.9940808,112.522669 L54.6531538,54.9773541 Z" transform="rotate(144 67.664 86.434)"/>
    <path stroke="#FFF" stroke-width="1.6" d="M54.6531538,54.9773541 C53.5934361,55.5159879 52.4838116,55.9680233 51.3345549,56.3334605 L70.9413176,117.889859 C75.4649564,116.450124 79.8271301,114.650787 83.9940808,112.522669 L54.6531538,54.9773541 Z" transform="rotate(144 67.664 86.434)"/>
    <path fill="#E790AC" d="M85.9726022,112.156816 L39.7555576,67.0575292 C38.088214,68.7659408 36.1405177,70.1896016 33.9946627,71.2800783 L63.3355897,128.825394 C71.7737016,124.514854 79.4177109,118.873045 85.9726022,112.156816" transform="rotate(144 59.984 97.941)"/>
    <path stroke="#FFF" stroke-width="1.6" d="M85.9726022,112.156816 L39.7555576,67.0575292 C38.088214,68.7659408 36.1405177,70.1896016 33.9946627,71.2800783 L63.3355897,128.825394 C71.7737016,124.514854 79.4177109,118.873045 85.9726022,112.156816 Z" transform="rotate(144 59.984 97.941)"/>
    <path fill="#F1BCCD" d="M95.8618198,35.3088128 C93.5207206,35.3087478 91.2735484,34.9300067 89.1628708,34.2489133 L69.4920064,95.7778024 C77.8084864,98.4390591 86.6636059,99.8896945 95.863612,99.8896945 C100.629473,99.8896945 105.301386,99.4921969 109.855868,98.7511109 L99.4152913,34.9933457 C98.2557553,35.182653 97.0742009,35.3088464 95.8618198,35.3088128" transform="rotate(144 89.674 67.07)"/>
    <path stroke="#FFF" stroke-width="1.6" d="M95.8618198,35.3088128 C93.5207206,35.3087478 91.2735484,34.9300067 89.1628708,34.2489133 L69.4920064,95.7778024 C77.8084864,98.4390591 86.6636059,99.8896945 95.863612,99.8896945 C100.629473,99.8896945 105.301386,99.4921969 109.855868,98.7511109 L99.4152913,34.9933457 C98.2557553,35.182653 97.0742009,35.3088464 95.8618198,35.3088128 Z" transform="rotate(144 89.674 67.07)"/>
    <path fill="#DE638B" d="M63.7666155,72.6608714 C60.5537501,75.9529394 56.3134145,78.2190236 51.5695911,78.9923948 L58.4531488,121.022998 C72.3749202,118.757182 84.8023745,112.045519 94.2296175,102.386535 L63.7666155,72.6608714 Z" transform="rotate(144 72.9 96.842)"/>
    <path stroke="#FFF" stroke-width="1.6" d="M63.7666155,72.6608714 C60.5537501,75.9529394 56.3134145,78.2190236 51.5695911,78.9923948 L58.4531488,121.022998 C72.3749202,118.757182 84.8023745,112.045519 94.2296175,102.386535 L63.7666155,72.6608714 Z" transform="rotate(144 72.9 96.842)"/>
    <path fill="#E790AC" d="M99.4868891,56.147166 C97.1457899,56.1471011 94.8986178,55.7683599 92.7879402,55.0872666 L79.8212844,95.6451682 C86.0226837,97.6297346 92.6276957,98.7118381 99.4880703,98.7118381 C103.043018,98.7118381 106.526037,98.4155484 109.922451,97.8623019 L103.040361,55.831699 C101.880825,56.0210062 100.69927,56.1471997 99.4868891,56.147166" transform="rotate(144 94.872 76.9)"/>
    <path stroke="#FFF" stroke-width="1.6" d="M99.4868891,56.147166 C97.1457899,56.1471011 94.8986178,55.7683599 92.7879402,55.0872666 L79.8212844,95.6451682 C86.0226837,97.6297346 92.6276957,98.7118381 99.4880703,98.7118381 C103.043018,98.7118381 106.526037,98.4155484 109.922451,97.8623019 L103.040361,55.831699 C101.880825,56.0210062 100.69927,56.1471997 99.4868891,56.147166 Z" transform="rotate(144 94.872 76.9)"/>
    <path fill="#FECDBB" d="M154.045824,137.784365 C148.686934,136.042001 143.150453,134.690052 137.462805,133.7931 L123.875062,219.346246 C125.028737,219.528279 126.153059,219.783698 127.237753,220.137455 L154.045824,137.784365 Z" transform="rotate(144 138.96 176.965)"/>
    <path stroke="#FFF" stroke-width="1.6" d="M154.045824,137.784365 C148.686934,136.042001 143.150453,134.690052 137.462805,133.7931 L123.875062,219.346246 C125.028737,219.528279 126.153059,219.783698 127.237753,220.137455 L154.045824,137.784365 Z" transform="rotate(144 138.96 176.965)"/>
    <path fill="#FEEEE8" d="M132.586317,142.732578 L93.3078969,219.914448 C94.3324175,220.436994 95.3055682,221.03733 96.2288165,221.706648 L147.014778,151.567349 C142.460185,148.261856 137.63553,145.308614 132.586317,142.732578" transform="rotate(144 120.161 182.22)"/>
    <path stroke="#FFF" stroke-width="1.6" d="M132.586317,142.732578 L93.3078969,219.914448 C94.3324175,220.436994 95.3055682,221.03733 96.2288165,221.706648 L147.014778,151.567349 C142.460185,148.261856 137.63553,145.308614 132.586317,142.732578 Z" transform="rotate(144 120.161 182.22)"/>
    <path fill="#FECDBB" d="M126.13679,148.965441 L64.863336,210.155594 C65.6559558,210.9482 66.369318,211.818594 67.0342447,212.72568 L136.928213,161.583964 C133.647614,157.108712 130.048516,152.882968 126.13679,148.965441" transform="rotate(144 100.896 180.846)"/>
    <path stroke="#FFF" stroke-width="1.6" d="M126.13679,148.965441 L64.863336,210.155594 C65.6559558,210.9482 66.369318,211.818594 67.0342447,212.72568 L136.928213,161.583964 C133.647614,157.108712 130.048516,152.882968 126.13679,148.965441 Z" transform="rotate(144 100.896 180.846)"/>
    <path fill="#FEEEE8" d="M131.244541,165.657855 C128.58479,160.441408 125.525811,155.464192 122.091091,150.776111 L52.1985903,201.917827 C52.8943414,202.867479 53.5181732,203.871435 54.0568755,204.928228 L131.244541,165.657855 Z" transform="rotate(144 91.722 177.852)"/>
    <path stroke="#FFF" stroke-width="1.6" d="M131.244541,165.657855 C128.58479,160.441408 125.525811,155.464192 122.091091,150.776111 L52.1985903,201.917827 C52.8943414,202.867479 53.5181732,203.871435 54.0568755,204.928228 L131.244541,165.657855 Z" transform="rotate(144 91.722 177.852)"/>
    <path fill="#FEEEE8" d="M114.458967,151.785423 L32.0941163,178.557784 C32.4493478,179.649798 32.7062397,180.782906 32.886808,181.942431 L118.463517,168.470886 C117.568016,162.746646 116.21017,157.176507 114.458967,151.785423" transform="rotate(144 75.279 166.864)"/>
    <path stroke="#FFF" stroke-width="1.6" d="M114.458967,151.785423 L32.0941163,178.557784 C32.4493478,179.649798 32.7062397,180.782906 32.886808,181.942431 L118.463517,168.470886 C117.568016,162.746646 116.21017,157.176507 114.458967,151.785423 Z" transform="rotate(144 75.279 166.864)"/>
    <path fill="#FECDBB" d="M42.5126856,194.226647 L124.877536,167.454286 C123.116057,162.029443 120.933332,156.796863 118.377799,151.784435 L41.1901333,191.05334 C41.7068179,192.070504 42.155986,193.125826 42.5126856,194.226647" transform="rotate(144 83.034 173.006)"/>
    <path stroke="#FFF" stroke-width="1.6" d="M42.5126856,194.226647 L124.877536,167.454286 C123.116057,162.029443 120.933332,156.796863 118.377799,151.784435 L41.1901333,191.05334 C41.7068179,192.070504 42.155986,193.125826 42.5126856,194.226647 Z" transform="rotate(144 83.034 173.006)"/>
    <path fill="#FEEEE8" d="M10.6361568,91.417978 C10.1268671,92.4174998 9.54712286,93.3700517 8.89692413,94.2726983 L79.1533209,144.895785 C82.3661542,140.444197 85.2487314,135.740146 87.7687624,130.820327 L10.6361568,91.417978 Z" transform="rotate(144 48.333 118.157)"/>
    <path stroke="#FFF" stroke-width="1.6" d="M10.6361568,91.417978 C10.1268671,92.4174998 9.54712286,93.3700517 8.89692413,94.2726983 L79.1533209,144.895785 C82.3661542,140.444197 85.2487314,135.740146 87.7687624,130.820327 L10.6361568,91.417978 Z" transform="rotate(144 48.333 118.157)"/>
    <path fill="#FEEEE8" d="M96.6382584,134.848583 L11.0534652,121.450078 C10.8670912,122.646287 10.5823753,123.808735 10.2125276,124.934487 L92.4834684,152.059272 C94.3136282,146.505367 95.7181282,140.757708 96.6382584,134.848583" transform="rotate(144 53.425 136.755)"/>
    <path stroke="#FFF" stroke-width="1.6" d="M96.6382584,134.848583 L11.0534652,121.450078 C10.8670912,122.646287 10.5823753,123.808735 10.2125276,124.934487 L92.4834684,152.059272 C94.3136282,146.505367 95.7181282,140.757708 96.6382584,134.848583 Z" transform="rotate(144 53.425 136.755)"/>
    <path fill="#FECDBB" d="M147.805457,144.693463 C139.867624,140.645196 131.234099,137.772575 122.116248,136.335397 L111.983041,200.143962 C114.299198,200.509496 116.49354,201.227285 118.511757,202.256232 L147.805457,144.693463 Z" transform="rotate(144 129.894 169.296)"/>
    <path stroke="#FFF" stroke-width="1.6" d="M147.805457,144.693463 C139.867624,140.645196 131.234099,137.772575 122.116248,136.335397 L111.983041,200.143962 C114.299198,200.509496 116.49354,201.227285 118.511757,202.256232 L147.805457,144.693463 Z" transform="rotate(144 129.894 169.296)"/>
    <path fill="#FCAB8F" d="M135.82449,129.579996 L135.826282,194.160877 C137.003436,194.16091 138.149771,194.279829 139.277026,194.457458 L149.410233,130.648893 C144.983408,129.95159 140.446509,129.579996 135.82449,129.579996" transform="rotate(144 142.617 162.019)"/>
    <path stroke="#FFF" stroke-width="1.6" d="M135.82449,129.579996 L135.826282,194.160877 C137.003436,194.16091 138.149771,194.279829 139.277026,194.457458 L149.410233,130.648893 C144.983408,129.95159 140.446509,129.579996 135.82449,129.579996 Z" transform="rotate(144 142.617 162.019)"/>
    <path fill="#FCAB8F" d="M128.512402,140.81189 L99.218703,198.374659 C100.241756,198.897205 101.214906,199.497541 102.138155,200.166859 L140.015541,147.854461 C136.382728,145.219754 132.538563,142.86538 128.512402,140.81189" transform="rotate(144 119.617 170.49)"/>
    <path stroke="#FFF" stroke-width="1.6" d="M128.512402,140.81189 L99.218703,198.374659 C100.241756,198.897205 101.214906,199.497541 102.138155,200.166859 L140.015541,147.854461 C136.382728,145.219754 132.538563,142.86538 128.512402,140.81189 Z" transform="rotate(144 119.617 170.49)"/>
    <path fill="#FCAB8F" d="M124.503817,187.474053 C124.503817,163.582062 114.825521,141.950134 99.1771498,126.281497 L53.4822151,171.915428 C57.4599926,175.899005 59.9216018,181.397254 59.9217704,187.47226 C59.9218026,188.631781 59.8058799,189.763411 59.6327134,190.873023 L123.463537,200.867218 C124.142995,196.500689 124.503817,192.02994 124.503817,187.474053" transform="rotate(144 88.993 163.574)"/>
    <path stroke="#FFF" stroke-width="1.6" d="M124.503817,187.474053 C124.503817,163.582062 114.825521,141.950134 99.1771498,126.281497 L53.4822151,171.915428 C57.4599926,175.899005 59.9216018,181.397254 59.9217704,187.47226 C59.9218026,188.631781 59.8058799,189.763411 59.6327134,190.873023 L123.463537,200.867218 C124.142995,196.500689 124.503817,192.02994 124.503817,187.474053 Z" transform="rotate(144 88.993 163.574)"/>
    <path fill="#FECDBB" d="M94.1505549,119.802083 L30.3197314,109.807888 C29.9543208,112.15187 29.2204956,114.374019 28.1828361,116.412692 L85.7086416,145.800057 C89.8167178,137.777464 92.7153283,129.032706 94.1505549,119.802083" transform="rotate(144 61.167 127.804)"/>
    <path stroke="#FFF" stroke-width="1.6" d="M94.1505549,119.802083 L30.3197314,109.807888 C29.9543208,112.15187 29.2204956,114.374019 28.1828361,116.412692 L85.7086416,145.800057 C89.8167178,137.777464 92.7153283,129.032706 94.1505549,119.802083 Z" transform="rotate(144 61.167 127.804)"/>
    <path fill="#FECDBB" d="M32.1529852,97.2964407 C31.6436954,98.2959625 31.0639512,99.2485144 30.4137525,100.151161 L82.8113886,137.904544 C85.3725554,134.357069 87.6695172,130.605571 89.6787907,126.683806 L32.1529852,97.2964407 Z" transform="rotate(144 60.046 117.6)"/>
    <path stroke="#FFF" stroke-width="1.6" d="M32.1529852,97.2964407 C31.6436954,98.2959625 31.0639512,99.2485144 30.4137525,100.151161 L82.8113886,137.904544 C85.3725554,134.357069 87.6695172,130.605571 89.6787907,126.683806 L32.1529852,97.2964407 Z" transform="rotate(144 60.046 117.6)"/>
    <path fill="#FCAB8F" d="M98.4975566,135.545043 L98.4987378,178.109715 C104.584128,178.109883 110.091284,180.578787 114.0764,184.569703 L144.194284,154.493461 C132.504608,142.787851 116.347154,135.545538 98.4975566,135.545043" transform="rotate(144 121.346 160.057)"/>
    <path stroke="#FFF" stroke-width="1.6" d="M98.4975566,135.545043 L98.4987378,178.109715 C104.584128,178.109883 110.091284,180.578787 114.0764,184.569703 L144.194284,154.493461 C132.504608,142.787851 116.347154,135.545538 98.4975566,135.545043 Z" transform="rotate(144 121.346 160.057)"/>
    <path fill="#FB8A62" d="M59.5076681,122.700926 C63.4854456,126.684502 65.9470548,132.182752 65.9472234,138.257758 C65.9473894,144.240296 63.5536007,149.657685 59.6802559,153.626366 L90.1432578,183.35203 C101.503504,171.711642 108.512663,155.807326 108.512663,138.258939 C108.512169,120.440487 101.294677,104.308276 89.6255514,92.6246837 L59.5076681,122.700926 Z" transform="rotate(144 84.01 137.988)"/>
    <path stroke="#FFF" stroke-width="1.6" d="M59.5076681,122.700926 C63.4854456,126.684502 65.9470548,132.182752 65.9472234,138.257758 C65.9473894,144.240296 63.5536007,149.657685 59.6802559,153.626366 L90.1432578,183.35203 C101.503504,171.711642 108.512663,155.807326 108.512663,138.258939 C108.512169,120.440487 101.294677,104.308276 89.6255514,92.6246837 L59.5076681,122.700926 Z" transform="rotate(144 84.01 137.988)"/>
    <path fill="#FA581F" d="M136.103931,71.8985705 C136.103903,70.919583 136.190475,69.9640819 136.313742,69.0188561 L115.929225,66.3264418 C115.691497,68.1508451 115.555098,70.0075417 115.555098,71.8980002 C115.555488,85.9692937 122.386853,98.4409322 132.911006,106.189462 L145.094537,89.6174655 C139.65192,85.6103643 136.104133,79.1771294 136.103931,71.8985705" transform="rotate(144 130.325 86.258)"/>
    <path fill="#343E73" stroke="#FFF" stroke-width="1.6" d="M136.103931,71.8985705 C136.103903,70.919583 136.190475,69.9640819 136.313742,69.0188561 L115.929225,66.3264418 C115.691497,68.1508451 115.555098,70.0075417 115.555098,71.8980002 C115.555488,85.9692937 122.386853,98.4409322 132.911006,106.189462 L145.094537,89.6174655 C139.65192,85.6103643 136.104133,79.1771294 136.103931,71.8985705 Z" transform="rotate(144 130.325 86.258)"/>
    <path fill="#D0215A" d="M110.252615,78.723328 C106.253045,82.8196998 100.679979,85.3704899 94.5035871,85.3703185 C89.6203037,85.370183 85.1259358,83.762875 81.4755078,81.0738606 L69.2934453,97.6458574 C76.3506459,102.843346 85.0663719,105.918781 94.5041573,105.918781 C106.444497,105.919112 117.23103,100.996587 124.961575,93.0753694 L110.252615,78.723328 Z" transform="rotate(144 97.128 92.321)"/>
    <path stroke="#FFF" stroke-width="1.6" d="M110.252615,78.723328 C106.253045,82.8196998 100.679979,85.3704899 94.5035871,85.3703185 C89.6203037,85.370183 85.1259358,83.762875 81.4755078,81.0738606 L69.2934453,97.6458574 C76.3506459,102.843346 85.0663719,105.918781 94.5041573,105.918781 C106.444497,105.919112 117.23103,100.996587 124.961575,93.0753694 L110.252615,78.723328 Z" transform="rotate(144 97.128 92.321)"/>
    <path fill="#FA581F" d="M103.568938,138.339263 C103.569104,144.321801 101.175315,149.73919 97.3019705,153.707871 L112.01093,168.059913 C119.499299,160.388205 124.117771,149.905682 124.117771,138.339834 C124.117119,114.832393 105.060483,95.7739803 81.5511501,95.7739803 L81.5517203,116.322443 C93.7107583,116.32278 103.568601,126.180445 103.568938,138.339263" transform="rotate(144 102.834 131.917)"/>
    <path stroke="#FFF" stroke-width="1.6" d="M103.568938,138.339263 C103.569104,144.321801 101.175315,149.73919 97.3019705,153.707871 L112.01093,168.059913 C119.499299,160.388205 124.117771,149.905682 124.117771,138.339834 C124.117119,114.832393 105.060483,95.7739803 81.5511501,95.7739803 L81.5517203,116.322443 C93.7107583,116.32278 103.568601,126.180445 103.568938,138.339263 Z" transform="rotate(144 102.834 131.917)"/>
    <path fill="#FA581F" d="M167.795772,120.901637 L167.795202,100.353175 C146.176362,100.352575 128.336019,116.472349 125.605071,137.345107 L145.989588,140.037522 C147.402755,129.242279 156.614272,120.901327 167.795772,120.901637" transform="rotate(144 146.7 120.195)"/>
    <path fill="#22A6A1" stroke="#FFF" stroke-width="1.6" d="M167.795772,120.901637 L167.795202,100.353175 C146.176362,100.352575 128.336019,116.472349 125.605071,137.345107 L145.989588,140.037522 C147.402755,129.242279 156.614272,120.901327 167.795772,120.901637 Z" transform="rotate(144 146.7 120.195)"/>
  </g>
</svg>
