<svg xmlns="http://www.w3.org/2000/svg" width="384" height="384" viewBox="0 0 384 384">
  <g fill="none" fill-rule="evenodd" transform="translate(66 109)">
    <text fill="#4A4A4A" font-family="Helvetica" font-size="14">
      <tspan x="210" y="14">A</tspan>
    </text>
    <text fill="#4A4A4A" font-family="Helvetica" font-size="14">
      <tspan x="200" y="174">B</tspan>
    </text>
    <text fill="#4A4A4A" font-family="Helvetica" font-size="14">
      <tspan x="0" y="65">D</tspan>
    </text>
    <text fill="#4A4A4A" font-family="Helvetica" font-size="14">
      <tspan x="76" y="199">C</tspan>
    </text>
    <g stroke-width="32" transform="translate(39 1)">
      <path stroke="#FF9C4D" d="M160,80 C160,124.1824 124.1824,160 80,160 C35.8176,160 0,124.1824 0,80 C0,35.8176 35.8176,0 80,0 C124.1824,0 160,35.8176 160,80 Z"/>
      <path stroke="#FFDA8A" d="M80,160 C63.3318429,160 47.8451853,154.83874 35,146"/>
      <path stroke="#22A6A1" d="M160,80 C160,124.1824 124.1824,160 80,160"/>
      <path stroke="#343E73" d="M160,80 C160,35.8176 124.1824,0 80,0"/>
    </g>
  </g>
</svg>
