<svg xmlns="http://www.w3.org/2000/svg" width="200" height="200" viewBox="0 0 200 200">
  <g fill="none" fill-rule="evenodd" transform="translate(0 3)">
    <path fill="#E8F6F5" d="M132.929096,66.0481475 C127.533488,73.5597601 123.24925,81.9248739 120.326473,90.9058436 L189.499554,113.509943 C190.091243,111.690342 190.970273,110.005259 192.062694,108.481751 L132.929096,66.0481475 Z" transform="rotate(144 156.195 89.779)"/>
    <path stroke="#FFF" stroke-width="1.6" d="M132.929096,66.0481475 C127.533488,73.5597601 123.24925,81.9248739 120.326473,90.9058436 L189.499554,113.509943 C190.091243,111.690342 190.970273,110.005259 192.062694,108.481751 L132.929096,66.0481475 Z" transform="rotate(144 156.195 89.779)"/>
    <path fill="#E8F6F5" d="M154.532714,165.806044 L143.006675,94.001262 C138.308959,94.7434315 133.729841,95.835642 129.300134,97.2668253 L151.756895,166.470715 C152.655408,166.180544 153.581091,165.956934 154.532714,165.806044" transform="rotate(144 141.916 130.236)"/>
    <path stroke="#FFF" stroke-width="1.6" d="M154.532714,165.806044 L143.006675,94.001262 C138.308959,94.7434315 133.729841,95.835642 129.300134,97.2668253 L151.756895,166.470715 C152.655408,166.180544 153.581091,165.956934 154.532714,165.806044 Z" transform="rotate(144 141.916 130.236)"/>
    <path fill="#90D2D0" d="M114.076317,82.5567287 L167.860318,89.6938821 C168.009911,88.5541643 168.261851,87.4477897 168.607514,86.383378 L117.018406,69.5253925 C115.655429,73.7152801 114.661179,78.0705502 114.076317,82.5567287" transform="rotate(144 141.342 79.61)"/>
    <path stroke="#FFF" stroke-width="1.6" d="M114.076317,82.5567287 L167.860318,89.6938821 C168.009911,88.5541643 168.261851,87.4477897 168.607514,86.383378 L117.018406,69.5253925 C115.655429,73.7152801 114.661179,78.0705502 114.076317,82.5567287 Z" transform="rotate(144 141.342 79.61)"/>
    <path fill="#90D2D0" d="M134.861507,156.223445 L134.822975,102.004741 C130.917426,102.001984 127.089777,102.324577 123.351079,102.91463 L131.947314,156.466591 C132.897705,156.316932 133.866628,156.222738 134.861507,156.223445" transform="rotate(144 129.106 129.236)"/>
    <path stroke="#FFF" stroke-width="1.6" d="M134.861507,156.223445 L134.822975,102.004741 C130.917426,102.001984 127.089777,102.324577 123.351079,102.91463 L131.947314,156.466591 C132.897705,156.316932 133.866628,156.222738 134.861507,156.223445 Z" transform="rotate(144 129.106 129.236)"/>
    <path fill="#90D2D0" d="M168.049402,117.448239 L129.296106,79.4664174 C126.702919,82.1126639 124.302185,84.9475801 122.134581,87.9650339 L166.239941,119.614468 C166.790463,118.847172 167.390326,118.120575 168.049402,117.448239" transform="rotate(144 145.092 99.54)"/>
    <path stroke="#FFF" stroke-width="1.6" d="M168.049402,117.448239 L129.296106,79.4664174 C126.702919,82.1126639 124.302185,84.9475801 122.134581,87.9650339 L166.239941,119.614468 C166.790463,118.847172 167.390326,118.120575 168.049402,117.448239 Z" transform="rotate(144 145.092 99.54)"/>
    <path fill="#BCE4E3" d="M151.919644,144.506281 L135.170973,92.8930077 C131.633616,94.0352479 128.214794,95.4375755 124.939153,97.085221 L149.315464,145.561695 C150.148547,145.143325 151.021131,144.796452 151.919644,144.506281" transform="rotate(144 138.43 119.227)"/>
    <path stroke="#FFF" stroke-width="1.6" d="M151.919644,144.506281 L135.170973,92.8930077 C131.633616,94.0352479 128.214794,95.4375755 124.939153,97.085221 L149.315464,145.561695 C150.148547,145.143325 151.021131,144.796452 151.919644,144.506281 Z" transform="rotate(144 138.43 119.227)"/>
    <path fill="#BCE4E3" d="M144.005329,150.973778 L135.409094,97.4218168 C131.664233,98.0130973 128.013265,98.8841636 124.480839,100.025175 L141.22951,151.638449 C142.128023,151.348278 143.053706,151.124667 144.005329,150.973778" transform="rotate(144 134.243 124.53)"/>
    <path stroke="#FFF" stroke-width="1.6" d="M144.005329,150.973778 L135.409094,97.4218168 C131.664233,98.0130973 128.013265,98.8841636 124.480839,100.025175 L141.22951,151.638449 C142.128023,151.348278 143.053706,151.124667 144.005329,150.973778 Z" transform="rotate(144 134.243 124.53)"/>
    <path fill="#90D2D0" d="M140.547719,134.170918 L140.522322,98.4358612 C131.766892,98.4296557 123.502366,100.50381 116.185779,104.181785 L132.253527,136.135382 C134.746613,134.880266 137.561848,134.168797 140.547719,134.170918" transform="rotate(144 128.367 117.286)"/>
    <path stroke="#FFF" stroke-width="1.6" d="M140.547719,134.170918 L140.522322,98.4358612 C131.766892,98.4296557 123.502366,100.50381 116.185779,104.181785 L132.253527,136.135382 C134.746613,134.880266 137.561848,134.168797 140.547719,134.170918 Z" transform="rotate(144 128.367 117.286)"/>
    <path fill="#BCE4E3" d="M128.883963,72.2452549 C124.582009,78.234593 121.16693,84.9035266 118.835842,92.0648949 L170.426183,108.922881 C171.017873,107.10328 171.896902,105.418197 172.989323,103.894689 L128.883963,72.2452549 Z" transform="rotate(144 145.913 90.584)"/>
    <path stroke="#FFF" stroke-width="1.6" d="M128.883963,72.2452549 C124.582009,78.234593 121.16693,84.9035266 118.835842,92.0648949 L170.426183,108.922881 C171.017873,107.10328 171.896902,105.418197 172.989323,103.894689 L128.883963,72.2452549 Z" transform="rotate(144 145.913 90.584)"/>
    <path fill="#64C0BD" d="M144.448179,75.1640563 C128.741609,83.0589653 117.414321,98.3652255 115.051583,116.500921 L150.505649,121.206162 C151.311213,115.024575 155.167439,109.808768 160.515926,107.116421 L144.448179,75.1640563 Z" transform="rotate(144 137.784 98.185)"/>
    <path stroke="#FFF" stroke-width="1.6" d="M144.448179,75.1640563 C128.741609,83.0589653 117.414321,98.3652255 115.051583,116.500921 L150.505649,121.206162 C151.311213,115.024575 155.167439,109.808768 160.515926,107.116421 L144.448179,75.1640563 Z" transform="rotate(144 137.784 98.185)"/>
    <path fill="#C2C5D5" d="M173.916428,50.4286068 L101.180523,50.3769384 C101.184094,55.4020248 101.603054,60.3300591 102.389304,65.1351302 L174.18977,53.4157562 C174.030044,52.4409391 173.917153,51.4489039 173.916428,50.4286068" transform="rotate(144 137.685 57.756)"/>
    <path stroke="#FFF" stroke-width="1.6" d="M173.916428,50.4286068 L101.180523,50.3769384 C101.184094,55.4020248 101.603054,60.3300591 102.389304,65.1351302 L174.18977,53.4157562 C174.030044,52.4409391 173.917153,51.4489039 173.916428,50.4286068 Z" transform="rotate(144 137.685 57.756)"/>
    <path fill="#EAEBF1" d="M138.875419,13.1326633 L80.3080462,56.2109124 C83.0610979,59.9391686 86.0876806,63.4519767 89.3643481,66.7172818 L140.707655,15.2583505 C140.043932,14.5961649 139.433186,13.8871918 138.875419,13.1326633" transform="rotate(144 110.508 39.925)"/>
    <path stroke="#FFF" stroke-width="1.6" d="M138.875419,13.1326633 L80.3080462,56.2109124 C83.0610979,59.9391686 86.0876806,63.4519767 89.3643481,66.7172818 L140.707655,15.2583505 C140.043932,14.5961649 139.433186,13.8871918 138.875419,13.1326633 Z" transform="rotate(144 110.508 39.925)"/>
    <path fill="#C2C5D5" d="M149.677035,19.6186504 L85.0471445,52.9196797 C87.2692544,57.2106935 89.8314751,61.2973966 92.6820126,65.157572 L151.249386,22.0793229 C150.669409,21.2976693 150.128862,20.4877021 149.677035,19.6186504" transform="rotate(144 118.148 42.388)"/>
    <path stroke="#FFF" stroke-width="1.6" d="M149.677035,19.6186504 L85.0471445,52.9196797 C87.2692544,57.2106935 89.8314751,61.2973966 92.6820126,65.157572 L151.249386,22.0793229 C150.669409,21.2976693 150.128862,20.4877021 149.677035,19.6186504 Z" transform="rotate(144 118.148 42.388)"/>
    <path fill="#EAEBF1" d="M167.687733,39.1535135 L95.8872672,50.8728875 C96.635132,55.4413408 97.7219386,59.8954362 99.1217796,64.2092785 L168.346739,41.8513599 C168.061338,40.9774974 167.840026,40.0790356 167.687733,39.1535135" transform="rotate(144 132.117 51.681)"/>
    <path stroke="#FFF" stroke-width="1.6" d="M167.687733,39.1535135 L95.8872672,50.8728875 C96.635132,55.4413408 97.7219386,59.8954362 99.1217796,64.2092785 L168.346739,41.8513599 C168.061338,40.9774974 167.840026,40.0790356 167.687733,39.1535135 Z" transform="rotate(144 132.117 51.681)"/>
    <path fill="#C2C5D5" d="M154.341583,49.1247154 L100.097857,49.086183 C100.103413,56.9035317 101.362526,64.4235683 103.653175,71.4822468 L155.27393,54.8097111 C154.688302,53.0151504 154.342997,51.1135554 154.341583,49.1247154" transform="rotate(144 127.686 60.284)"/>
    <path stroke="#FFF" stroke-width="1.6" d="M154.341583,49.1247154 L100.097857,49.086183 C100.103413,56.9035317 101.362526,64.4235683 103.653175,71.4822468 L155.27393,54.8097111 C154.688302,53.0151504 154.342997,51.1135554 154.341583,49.1247154 Z" transform="rotate(144 127.686 60.284)"/>
    <path fill="#C2C5D5" d="M119.942716,25.8451787 L81.661604,64.2121893 C84.2387715,66.7795484 86.9859461,69.1769788 89.9215737,71.3391847 L122.028695,27.6666823 C121.282453,27.1165721 120.597802,26.4962679 119.942716,25.8451787" transform="rotate(144 101.845 48.592)"/>
    <path stroke="#FFF" stroke-width="1.6" d="M119.942716,25.8451787 L81.661604,64.2121893 C84.2387715,66.7795484 86.9859461,69.1769788 89.9215737,71.3391847 L122.028695,27.6666823 C121.282453,27.1165721 120.597802,26.4962679 119.942716,25.8451787 Z" transform="rotate(144 101.845 48.592)"/>
    <path fill="#989DB8" d="M137.722995,25.7182114 L86.1022393,42.3907471 C89.7050041,53.4884155 95.9056993,63.4099058 103.98387,71.4609538 L142.266214,33.0927118 C140.210897,31.0481942 138.640975,28.534537 137.722995,25.7182114" transform="rotate(144 114.184 48.59)"/>
    <path stroke="#FFF" stroke-width="1.6" d="M137.722995,25.7182114 L86.1022393,42.3907471 C89.7050041,53.4884155 95.9056993,63.4099058 103.98387,71.4609538 L142.266214,33.0927118 C140.210897,31.0481942 138.640975,28.534537 137.722995,25.7182114 Z" transform="rotate(144 114.184 48.59)"/>
    <path fill="#70779D" d="M125.351756,37.2188495 L89.6002089,37.1934532 C89.6129464,55.1164257 98.3303544,71.0086851 111.747898,80.8884768 L132.913301,52.0998493 C128.339643,48.732579 125.356098,43.3295419 125.351756,37.2188495" transform="rotate(144 111.257 59.041)"/>
    <path stroke="#FFF" stroke-width="1.6" d="M125.351756,37.2188495 L89.6002089,37.1934532 C89.6129464,55.1164257 98.3303544,71.0086851 111.747898,80.8884768 L132.913301,52.0998493 C128.339643,48.732579 125.356098,43.3295419 125.351756,37.2188495 Z" transform="rotate(144 111.257 59.041)"/>
    <path fill="#FAE8EE" d="M75.1208916,11.0893695 L64.1765191,82.952124 C68.6755351,83.6379821 73.2778848,84.0109241 77.9675015,84.0142554 L77.9158331,11.3119263 C76.9641023,11.3112502 76.0320395,11.2304924 75.1208916,11.0893695" transform="rotate(144 71.072 47.552)"/>
    <path stroke="#FFF" stroke-width="1.6" d="M75.1208916,11.0893695 L64.1765191,82.952124 C68.6755351,83.6379821 73.2778848,84.0109241 77.9675015,84.0142554 L77.9158331,11.3119263 C76.9641023,11.3112502 76.0320395,11.2304924 75.1208916,11.0893695 Z" transform="rotate(144 71.072 47.552)"/>
    <path fill="#FAE8EE" d="M33.1183983,32.6360126 C32.2286321,33.0913102 31.3067734,33.4911341 30.3404678,33.7985082 L52.465674,103.103206 C57.2318781,101.587237 61.815344,99.6743566 66.2062574,97.4323304 L33.1183983,32.6360126 Z" transform="rotate(144 48.273 67.87)"/>
    <path stroke="#FFF" stroke-width="1.6" d="M33.1183983,32.6360126 C32.2286321,33.0913102 31.3067734,33.4911341 30.3404678,33.7985082 L52.465674,103.103206 C57.2318781,101.587237 61.815344,99.6743566 66.2062574,97.4323304 L33.1183983,32.6360126 Z" transform="rotate(144 48.273 67.87)"/>
    <path fill="#F1BCCD" d="M52.1686013,19.7181513 L52.2202697,92.4205031 C57.24028,92.4240464 62.1613667,92.0073476 66.9601493,91.2307471 L55.1530507,19.4553393 C54.1792422,19.6136068 53.1869039,19.7188747 52.1686013,19.7181513" transform="rotate(144 59.564 55.938)"/>
    <path stroke="#FFF" stroke-width="1.6" d="M52.1686013,19.7181513 L52.2202697,92.4205031 C57.24028,92.4240464 62.1613667,92.0073476 66.9601493,91.2307471 L55.1530507,19.4553393 C54.1792422,19.6136068 53.1869039,19.7188747 52.1686013,19.7181513 Z" transform="rotate(144 59.564 55.938)"/>
    <path fill="#F1BCCD" d="M45.918125,46.11698 C45.0283562,46.5685808 44.0966201,46.9474496 43.1315464,47.2535923 L59.6349431,98.9443231 C63.4336105,97.7381919 67.0964539,96.2300648 70.5951373,94.4457989 L45.918125,46.11698 Z" transform="rotate(144 56.863 72.53)"/>
    <path stroke="#FFF" stroke-width="1.6" d="M45.918125,46.11698 C45.0283562,46.5685808 44.0966201,46.9474496 43.1315464,47.2535923 L59.6349431,98.9443231 C63.4336105,97.7381919 67.0964539,96.2300648 70.5951373,94.4457989 L45.918125,46.11698 Z" transform="rotate(144 56.863 72.53)"/>
    <path fill="#E790AC" d="M72.2525066,94.1416743 L33.4080488,56.2522057 C32.0085937,57.6855415 30.3735017,58.879655 28.5717813,59.7939311 L53.2487936,108.12275 C60.3336575,104.508687 66.7507758,99.7765066 72.2525066,94.1416743" transform="rotate(144 50.412 82.187)"/>
    <path stroke="#FFF" stroke-width="1.6" d="M72.2525066,94.1416743 L33.4080488,56.2522057 C32.0085937,57.6855415 30.3735017,58.879655 28.5717813,59.7939311 L53.2487936,108.12275 C60.3336575,104.508687 66.7507758,99.7765066 72.2525066,94.1416743 Z" transform="rotate(144 50.412 82.187)"/>
    <path fill="#F1BCCD" d="M80.5030835,29.6262317 C78.5367484,29.6248349 76.6490874,29.3055755 74.8758974,28.7325555 L58.3892305,80.3776712 C65.3759308,82.6166894 72.8143505,83.8394287 80.5416158,83.8449359 C84.5445563,83.8477613 88.4683594,83.5166109 92.2933326,82.8970457 L83.4875329,29.3634196 C82.5137244,29.5216871 81.5213861,29.626955 80.5030835,29.6262317" transform="rotate(144 75.341 56.289)"/>
    <path stroke="#FFF" stroke-width="1.6" d="M80.5030835,29.6262317 C78.5367484,29.6248349 76.6490874,29.3055755 74.8758974,28.7325555 L58.3892305,80.3776712 C65.3759308,82.6166894 72.8143505,83.8394287 80.5416158,83.8449359 C84.5445563,83.8477613 88.4683594,83.5166109 92.2933326,82.8970457 L83.4875329,29.3634196 C82.5137244,29.5216871 81.5213861,29.626955 80.5030835,29.6262317 Z" transform="rotate(144 75.341 56.289)"/>
    <path fill="#DE638B" d="M53.585686,60.9667942 C50.8890249,63.7287979 47.3287833,65.6288509 43.3447966,66.2754125 L49.1505294,101.566026 C60.8423987,99.6717489 71.2766127,94.0441172 79.1892007,85.9403517 L53.585686,60.9667942 Z" transform="rotate(144 61.267 81.266)"/>
    <path stroke="#FFF" stroke-width="1.6" d="M53.585686,60.9667942 C50.8890249,63.7287979 47.3287833,65.6288509 43.3447966,66.2754125 L49.1505294,101.566026 C60.8423987,99.6717489 71.2766127,94.0441172 79.1892007,85.9403517 L53.585686,60.9667942 Z" transform="rotate(144 61.267 81.266)"/>
    <path fill="#E790AC" d="M83.5675839,47.1141627 C81.6012488,47.1127659 79.7135878,46.7935065 77.9403979,46.2204865 L67.0727035,80.2633165 C72.282518,81.9330088 77.8308172,82.8451126 83.5929803,82.8492194 C86.5788508,82.8513269 89.5041367,82.6044919 92.3565334,82.1419628 L86.5520334,46.8513506 C85.5782249,47.0096181 84.5858866,47.1148861 83.5675839,47.1141627" transform="rotate(144 79.715 64.535)"/>
    <path stroke="#FFF" stroke-width="1.6" d="M83.5675839,47.1141627 C81.6012488,47.1127659 79.7135878,46.7935065 77.9403979,46.2204865 L67.0727035,80.2633165 C72.282518,81.9330088 77.8308172,82.8451126 83.5929803,82.8492194 C86.5788508,82.8513269 89.5041367,82.6044919 92.3565334,82.1419628 L86.5520334,46.8513506 C85.5782249,47.0096181 84.5858866,47.1148861 83.5675839,47.1141627 Z" transform="rotate(144 79.715 64.535)"/>
    <path fill="#FECDBB" d="M129.422092,115.618778 C124.920056,114.152908 120.269083,113.014709 115.491402,112.258415 L104.127842,184.076511 C105.09694,184.229998 106.041427,184.445079 106.952686,184.742696 L129.422092,115.618778 Z" transform="rotate(144 116.775 148.5)"/>
    <path stroke="#FFF" stroke-width="1.6" d="M129.422092,115.618778 C124.920056,114.152908 120.269083,113.014709 115.491402,112.258415 L104.127842,184.076511 C105.09694,184.229998 106.041427,184.445079 106.952686,184.742696 L129.422092,115.618778 Z" transform="rotate(144 116.775 148.5)"/>
    <path fill="#FEEEE8" d="M111.387544,119.76908 L78.4410824,184.544366 C79.3018969,184.983656 80.1196094,185.488224 80.8954475,186.050678 L123.511357,127.194558 C119.683969,124.41683 115.629954,121.934678 111.387544,119.76908" transform="rotate(144 100.976 152.91)"/>
    <path stroke="#FFF" stroke-width="1.6" d="M111.387544,119.76908 L78.4410824,184.544366 C79.3018969,184.983656 80.1196094,185.488224 80.8954475,186.050678 L123.511357,127.194558 C119.683969,124.41683 115.629954,121.934678 111.387544,119.76908 Z" transform="rotate(144 100.976 152.91)"/>
    <path fill="#FECDBB" d="M105.964751,125.008791 L54.5350609,176.345669 C55.2012522,177.011553 55.8009182,177.742699 56.3599232,178.504622 L115.035913,135.608821 C112.277909,131.849756 109.252532,128.299981 105.964751,125.008791" transform="rotate(144 84.785 151.757)"/>
    <path stroke="#FFF" stroke-width="1.6" d="M105.964751,125.008791 L54.5350609,176.345669 C55.2012522,177.011553 55.8009182,177.742699 56.3599232,178.504622 L115.035913,135.608821 C112.277909,131.849756 109.252532,128.299981 105.964751,125.008791 Z" transform="rotate(144 84.785 151.757)"/>
    <path fill="#FEEEE8" d="M110.261148,139.031912 C108.02418,134.650934 105.45203,130.470574 102.564453,126.532741 L43.889696,169.428542 C44.4746155,170.226218 44.9991595,171.069444 45.4522321,171.956981 L110.261148,139.031912 Z" transform="rotate(144 77.075 149.245)"/>
    <path stroke="#FFF" stroke-width="1.6" d="M110.261148,139.031912 C108.02418,134.650934 105.45203,130.470574 102.564453,126.532741 L43.889696,169.428542 C44.4746155,170.226218 44.9991595,171.069444 45.4522321,171.956981 L110.261148,139.031912 Z" transform="rotate(144 77.075 149.245)"/>
    <path fill="#FEEEE8" d="M96.1526831,127.387857 L26.9881827,149.817289 C27.2871747,150.73429 27.5035929,151.685734 27.6559206,152.659314 L99.5257495,141.398383 C98.7703188,136.592102 97.6266443,131.91493 96.1526831,127.387857" transform="rotate(144 63.257 140.024)"/>
    <path stroke="#FFF" stroke-width="1.6" d="M96.1526831,127.387857 L26.9881827,149.817289 C27.2871747,150.73429 27.5035929,151.685734 27.6559206,152.659314 L99.5257495,141.398383 C98.7703188,136.592102 97.6266443,131.91493 96.1526831,127.387857 Z" transform="rotate(144 63.257 140.024)"/>
    <path fill="#FECDBB" d="M35.748384,162.971888 L104.912884,140.542457 C103.430273,135.987036 101.59396,131.592788 99.4446438,127.383154 L34.6357271,160.30699 C35.0702838,161.161243 35.4481539,162.047493 35.748384,162.971888" transform="rotate(144 69.774 145.178)"/>
    <path stroke="#FFF" stroke-width="1.6" d="M35.748384,162.971888 L104.912884,140.542457 C103.430273,135.987036 101.59396,131.592788 99.4446438,127.383154 L34.6357271,160.30699 C35.0702838,161.161243 35.4481539,162.047493 35.748384,162.971888 Z" transform="rotate(144 69.774 145.178)"/>
    <path fill="#FEEEE8" d="M8.94529688,76.6805314 C8.51810751,77.5193849 8.03171514,78.3187646 7.48611802,79.076206 L66.5248655,121.616947 C69.2208347,117.881472 71.6392707,113.933853 73.7530733,109.804879 L8.94529688,76.6805314 Z" transform="rotate(144 40.62 99.149)"/>
    <path stroke="#FFF" stroke-width="1.6" d="M8.94529688,76.6805314 C8.51810751,77.5193849 8.03171514,78.3187646 7.48611802,79.076206 L66.5248655,121.616947 C69.2208347,117.881472 71.6392707,113.933853 73.7530733,109.804879 L8.94529688,76.6805314 Z" transform="rotate(144 40.62 99.149)"/>
    <path fill="#FEEEE8" d="M81.1972037,113.178937 L9.30517863,101.881193 C9.14932523,102.88536 8.9108533,103.861126 8.60085637,104.806036 L77.7173819,127.625738 C79.2513846,122.964023 80.4277563,118.139398 81.1972037,113.178937" transform="rotate(144 44.899 114.753)"/>
    <path stroke="#FFF" stroke-width="1.6" d="M81.1972037,113.178937 L9.30517863,101.881193 C9.14932523,102.88536 8.9108533,103.861126 8.60085637,104.806036 L77.7173819,127.625738 C79.2513846,122.964023 80.4277563,118.139398 81.1972037,113.178937 Z" transform="rotate(144 44.899 114.753)"/>
    <path fill="#FECDBB" d="M124.184689,121.427699 C117.515227,118.024437 110.262113,115.607786 102.603028,114.395981 L94.1285331,167.96046 C96.0741284,168.26867 97.9176105,168.872546 99.6133409,169.737553 L124.184689,121.427699 Z" transform="rotate(144 109.157 142.067)"/>
    <path stroke="#FFF" stroke-width="1.6" d="M124.184689,121.427699 C117.515227,118.024437 110.262113,115.607786 102.603028,114.395981 L94.1285331,167.96046 C96.0741284,168.26867 97.9176105,168.872546 99.6133409,169.737553 L124.184689,121.427699 Z" transform="rotate(144 109.157 142.067)"/>
    <path fill="#FCAB8F" d="M114.157256,108.711614 L114.195788,162.9303 C115.184504,162.931002 116.147401,163.031498 117.094306,163.181272 L125.568801,109.616793 C121.850224,109.028836 118.039381,108.714372 114.157256,108.711614" transform="rotate(144 119.863 135.946)"/>
    <path stroke="#FFF" stroke-width="1.6" d="M114.157256,108.711614 L114.195788,162.9303 C115.184504,162.931002 116.147401,163.031498 117.094306,163.181272 L125.568801,109.616793 C121.850224,109.028836 118.039381,108.714372 114.157256,108.711614 Z" transform="rotate(144 119.863 135.946)"/>
    <path fill="#FCAB8F" d="M107.971618,118.157616 L83.4002699,166.46747 C84.2598516,166.906759 85.0775641,167.411327 85.8534021,167.973781 L117.637367,124.076781 C114.584586,121.862737 111.354447,119.883926 107.971618,118.157616" transform="rotate(144 100.519 143.066)"/>
    <path stroke="#FFF" stroke-width="1.6" d="M107.971618,118.157616 L83.4002699,166.46747 C84.2598516,166.906759 85.0775641,167.411327 85.8534021,167.973781 L117.637367,124.076781 C114.584586,121.862737 111.354447,119.883926 107.971618,118.157616 Z" transform="rotate(144 100.519 143.066)"/>
    <path fill="#FCAB8F" d="M104.599724,157.327779 C104.585451,137.26933 96.4446147,119.102761 83.292258,105.939232 L44.9383518,144.224863 C48.2816489,147.571543 50.3523551,152.188994 50.3559798,157.289247 C50.3566716,158.262719 50.2599547,159.212709 50.1151449,160.144181 L103.733633,168.571374 C104.30182,164.905857 104.602424,161.152661 104.599724,157.327779" transform="rotate(144 74.769 137.255)"/>
    <path stroke="#FFF" stroke-width="1.6" d="M104.599724,157.327779 C104.585451,137.26933 96.4446147,119.102761 83.292258,105.939232 L44.9383518,144.224863 C48.2816489,147.571543 50.3523551,152.188994 50.3559798,157.289247 C50.3566716,158.262719 50.2599547,159.212709 50.1151449,160.144181 L103.733633,168.571374 C104.30182,164.905857 104.602424,161.152661 104.599724,157.327779 Z" transform="rotate(144 74.769 137.255)"/>
    <path fill="#FECDBB" d="M79.1109054,100.545154 L25.4924171,92.1179605 C25.1868455,94.0856343 24.5717654,95.9508121 23.7013838,97.6617783 L72.035283,122.366835 C75.4811368,115.633846 77.9107228,108.293873 79.1109054,100.545154" transform="rotate(144 51.406 107.242)"/>
    <path stroke="#FFF" stroke-width="1.6" d="M79.1109054,100.545154 L25.4924171,92.1179605 C25.1868455,94.0856343 24.5717654,95.9508121 23.7013838,97.6617783 L72.035283,122.366835 C75.4811368,115.633846 77.9107228,108.293873 79.1109054,100.545154 Z" transform="rotate(144 51.406 107.242)"/>
    <path fill="#FECDBB" d="M27.024496,81.6212041 C26.5973066,82.4600576 26.1109142,83.2594373 25.5653171,84.0168787 L69.596763,115.742659 C71.7459032,112.765857 73.6730156,109.617614 75.3583952,106.32626 L27.024496,81.6212041 Z" transform="rotate(144 50.462 98.682)"/>
    <path stroke="#FFF" stroke-width="1.6" d="M27.024496,81.6212041 C26.5973066,82.4600576 26.1109142,83.2594373 25.5653171,84.0168787 L69.596763,115.742659 C71.7459032,112.765857 73.6730156,109.617614 75.3583952,106.32626 L27.024496,81.6212041 Z" transform="rotate(144 50.462 98.682)"/>
    <path fill="#FCAB8F" d="M82.787192,113.727211 L82.8125883,149.462254 C87.9238267,149.465885 92.5508101,151.541803 95.9002757,154.894649 L121.179631,129.661498 C111.354533,119.827387 97.7794181,113.737861 82.787192,113.727211" transform="rotate(144 101.983 134.31)"/>
    <path stroke="#FFF" stroke-width="1.6" d="M82.787192,113.727211 L82.8125883,149.462254 C87.9238267,149.465885 92.5508101,151.541803 95.9002757,154.894649 L121.179631,129.661498 C111.354533,119.827387 97.7794181,113.737861 82.787192,113.727211 Z" transform="rotate(144 101.983 134.31)"/>
    <path fill="#FB8A62" d="M50.013681,102.933046 C53.3569781,106.279726 55.4276843,110.897177 55.4313089,115.99743 C55.4348784,121.020052 53.4273945,125.566832 50.1763717,128.896505 L75.7798864,153.870063 C85.3149055,144.103923 91.1933259,130.755522 91.1828696,116.022826 C91.1722242,101.063398 85.1008626,87.5155104 75.2930367,77.6998951 L50.013681,102.933046 Z" transform="rotate(144 70.598 115.785)"/>
    <path stroke="#FFF" stroke-width="1.6" d="M50.013681,102.933046 C53.3569781,106.279726 55.4276843,110.897177 55.4313089,115.99743 C55.4348784,121.020052 53.4273945,125.566832 50.1763717,128.896505 L75.7798864,153.870063 C85.3149055,144.103923 91.1933259,130.755522 91.1828696,116.022826 C91.1722242,101.063398 85.1008626,87.5155104 75.2930367,77.6998951 L50.013681,102.933046 Z" transform="rotate(144 70.598 115.785)"/>
    <path fill="#FA581F" d="M114.370113,60.3338788 C114.369529,59.5119729 114.441695,58.7098344 114.544687,57.9163436 L97.4217882,55.6442479 C97.2231612,57.1757839 97.1096175,58.7344897 97.1107372,60.3216185 C97.1191412,72.1351309 102.864089,82.6095742 111.707974,89.1208633 L121.931658,75.2148786 C117.358,71.8476084 114.374456,66.4445712 114.370113,60.3338788" transform="rotate(144 109.521 72.383)"/>
    <path fill="#343E73" stroke="#FFF" stroke-width="1.6" d="M114.370113,60.3338788 C114.369529,59.5119729 114.441695,58.7098344 114.544687,57.9163436 L97.4217882,55.6442479 C97.2231612,57.1757839 97.1096175,58.7344897 97.1107372,60.3216185 C97.1191412,72.1351309 102.864089,82.6095742 111.707974,89.1208633 L121.931658,75.2148786 C117.358,71.8476084 114.374456,66.4445712 114.370113,60.3338788 Z" transform="rotate(144 109.521 72.383)"/>
    <path fill="#D0215A" d="M92.6310681,66.0565713 C89.2740997,69.4933747 84.5946347,71.6316876 79.406962,71.6280026 C75.3053967,71.625089 71.5295675,70.2731015 68.4619599,68.0134547 L58.2395086,81.9194402 C64.1699694,86.2870228 71.4922415,88.8737717 79.4192223,88.8794119 C89.4481476,88.8865268 98.5051454,84.76002 104.99364,78.1142178 L92.6310681,66.0565713 Z" transform="rotate(144 81.617 77.468)"/>
    <path stroke="#FFF" stroke-width="1.6" d="M92.6310681,66.0565713 C89.2740997,69.4933747 84.5946347,71.6316876 79.406962,71.6280026 C75.3053967,71.625089 71.5295675,70.2731015 68.4619599,68.0134547 L58.2395086,81.9194402 C64.1699694,86.2870228 71.4922415,88.8737717 79.4192223,88.8794119 C89.4481476,88.8865268 98.5051454,84.76002 104.99364,78.1142178 L92.6310681,66.0565713 Z" transform="rotate(144 81.617 77.468)"/>
    <path fill="#FA581F" d="M87.0535416,116.089056 C87.0571111,121.111678 85.0496272,125.658458 81.7986044,128.988132 L94.161176,141.045778 C100.446405,134.609313 104.31981,125.81139 104.312918,116.101316 C104.298883,96.3657145 88.281915,80.3549034 68.535966,80.3408768 L68.5482263,97.5922769 C78.7608405,97.5995315 87.046287,105.881156 87.0535416,116.089056" transform="rotate(144 86.424 110.693)"/>
    <path stroke="#FFF" stroke-width="1.6" d="M87.0535416,116.089056 C87.0571111,121.111678 85.0496272,125.658458 81.7986044,128.988132 L94.161176,141.045778 C100.446405,134.609313 104.31981,125.81139 104.312918,116.101316 C104.298883,96.3657145 88.281915,80.3549034 68.535966,80.3408768 L68.5482263,97.5922769 C78.7608405,97.5995315 87.046287,105.881156 87.0535416,116.089056 Z" transform="rotate(144 86.424 110.693)"/>
    <path fill="#FA581F" d="M140.983776,101.457079 L140.971516,84.2056695 C122.813428,84.19278 107.838217,97.7158588 105.556408,115.237955 L122.679307,117.51005 C123.860064,108.447748 131.592215,101.450407 140.983776,101.457079" transform="rotate(144 123.27 100.858)"/>
    <path fill="#22A6A1" stroke="#FFF" stroke-width="1.6" d="M140.983776,101.457079 L140.971516,84.2056695 C122.813428,84.19278 107.838217,97.7158588 105.556408,115.237955 L122.679307,117.51005 C123.860064,108.447748 131.592215,101.450407 140.983776,101.457079 Z" transform="rotate(144 123.27 100.858)"/>
  </g>
</svg>
